<?xml version="1.0" encoding="iso-8859-1"?>
<svg version="1.1" id="Capa_1" xmlns="http://www.w3.org/2000/svg" xmlns:xlink="http://www.w3.org/1999/xlink" x="0px" y="0px"
	 viewBox="0 0 512 512" style="enable-background:new 0 0 512 512;" xml:space="preserve">
<path style="fill:#8FE673;" d="M512,436H0V76h512V436z"/>
<path style="fill:#76CC5B;" d="M512,436H256V76h256V436z"/>
<g>
	<path style="fill:#599944;" d="M0,171v-30c35.841,0,65-29.159,65-65h30C95,128.383,52.383,171,0,171z"/>
	<path style="fill:#599944;" d="M95,436H65c0-35.841-29.159-65-65-65v-30C52.383,341,95,383.617,95,436z"/>
</g>
<g>
	<path style="fill:#477A36;" d="M447,436h-30c0-52.383,42.617-95,95-95v30C476.159,371,447,400.159,447,436z"/>
	<path style="fill:#477A36;" d="M512,171c-52.383,0-95-42.617-95-95h30c0,35.841,29.159,65,65,65V171z"/>
</g>
<path style="fill:#599944;" d="M106,276c-11.028,0-20-8.972-20-20s8.972-20,20-20s20,8.972,20,20C126,267.028,117.028,276,106,276z"
	/>
<path style="fill:#477A36;" d="M406,276c-11.028,0-20-8.972-20-20s8.972-20,20-20s20,8.972,20,20C426,267.028,417.028,276,406,276z"
	/>
<path style="fill:#FFFFFF;" d="M312,226c0-24.813-20.187-45-45-45h-56v150h56c24.813,0,45-20.187,45-45
	c0-11.517-4.354-22.032-11.495-30C307.646,248.032,312,237.517,312,226z M241,211h26c8.271,0,15,6.729,15,15s-6.729,15-15,15h-26
	V211z M267,301h-26v-30h26c8.271,0,15,6.729,15,15S275.271,301,267,301z"/>
<path style="fill:#F2F2F4;" d="M312,226c0-24.813-20.187-45-45-45h-11v30h11c8.271,0,15,6.729,15,15s-6.729,15-15,15h-11v30h11
	c8.271,0,15,6.729,15,15s-6.729,15-15,15h-11v30h11c24.813,0,45-20.187,45-45c0-11.517-4.354-22.032-11.495-30
	C307.646,248.032,312,237.517,312,226z"/>
<g>
</g>
<g>
</g>
<g>
</g>
<g>
</g>
<g>
</g>
<g>
</g>
<g>
</g>
<g>
</g>
<g>
</g>
<g>
</g>
<g>
</g>
<g>
</g>
<g>
</g>
<g>
</g>
<g>
</g>
</svg>
