<?xml version="1.0" ?><svg height="600mm" id="svg4658" version="1.1" viewBox="0 0 2125.9843 2125.9842" width="600mm" xmlns="http://www.w3.org/2000/svg" xmlns:cc="http://creativecommons.org/ns#" xmlns:dc="http://purl.org/dc/elements/1.1/" xmlns:inkscape="http://www.inkscape.org/namespaces/inkscape" xmlns:rdf="http://www.w3.org/1999/02/22-rdf-syntax-ns#" xmlns:sodipodi="http://sodipodi.sourceforge.net/DTD/sodipodi-0.dtd" xmlns:svg="http://www.w3.org/2000/svg"><defs id="defs4660"/><g id="layer1" transform="translate(0,1073.6222)"><path d="m 148.16981,-397.89347 1584.86129,0 c 69.7199,0 125.8475,61.77282 125.8475,138.50406 L 939.39367,409.64029 22.322391,-259.38941 c 0,-76.73124 56.128803,-138.50406 125.847419,-138.50406 z" id="path4781" style="opacity:1;fill:#989691;fill-opacity:1;stroke:none;stroke-width:1;stroke-miterlimit:4;stroke-dasharray:none;stroke-opacity:1"/><path d="m 939.74462,-994.76937 c -13.82378,-0.0813 -24.37202,8.19539 -35.96572,15.72446 -249.21109,161.83551 -679.39233,488.77011 -828.449325,602.97616 -16.354327,12.5313 -25.131802,25.18364 -29.841938,34.83542 -14.380384,22.51715 -22.811832,50.00046 -22.811832,79.73365 l 1836.554895,0 c 0,-33.36154 -10.6147,-63.89381 -28.3396,-87.75221 -6.726,-9.66323 -15.6081,-19.812 -27.1895,-28.59907 -152.1454,-115.44264 -580.807,-438.32257 -828.19813,-600.75138 -11.56785,-7.5952 -21.92029,-16.08527 -35.75885,-16.16703 z" id="path4783" style="opacity:1;fill:#ebeae3;fill-opacity:1;stroke:none;stroke-width:1;stroke-miterlimit:4;stroke-dasharray:none;stroke-opacity:1"/><path d="m 1858.5805,-260.3871 z m 0,0 0,1035.10174 c 0,71.00494 -56.1276,128.1698 -125.8474,128.1698 l -1584.86006,0 L 941.5117,408.6426 Z" id="path4785" style="opacity:1;fill:#eeede9;fill-opacity:1;stroke:none;stroke-width:1;stroke-miterlimit:4;stroke-dasharray:none;stroke-opacity:1"/><path d="m 21.214125,-263.90535 z m 0,0 0,1035.10173 c 0,71.00494 56.12757,128.16986 125.847425,128.16986 l 1584.85885,0 -793.63622,-494.24189 z" id="path4787" style="opacity:1;fill:#e9e7e0;fill-opacity:1;stroke:none;stroke-width:1;stroke-miterlimit:4;stroke-dasharray:none;stroke-opacity:1"/></g><g id="layer2"><circle cx="1790.9655" cy="-299.09171" id="circle4789" r="328.39215" style="opacity:1;fill:#8a92b2;fill-opacity:1;stroke:none;stroke-width:20;stroke-miterlimit:4;stroke-dasharray:none;stroke-opacity:0.63372091" transform="translate(0,1073.6222)"/><path d="m 1790.9812,-493.77224 c -59.0029,0 -110.6741,37.53466 -139.2291,93.72578 -14.9591,29.43618 -12.1885,63.99268 -12.1885,100.95462 0,44.10484 0.8805,84.7839 21.5546,117.42656 29.7261,46.93375 76.8336,77.25384 129.863,77.25384 55.8381,0 105.1093,-33.61485 134.4376,-84.84473 17.8961,-31.26373 16.9812,-64.53452 16.9812,-105.28242 0,-37.33641 2.5958,-76.77113 -12.6441,-106.40052 -28.6463,-55.69536 -80.0834,-92.83313 -138.7747,-92.83313 z m -1.5135,68.81635 c 11.5199,-0.16759 23.0188,2.89418 33.3343,7.98174 22.4202,11.38966 41.7422,31.41963 47.7528,56.30896 5.3257,33.63196 1.9948,67.88863 2.8026,101.83201 0.218,36.14378 -25.5296,70.27226 -59.6211,81.58693 -29.5254,10.23817 -63.3547,-2.09808 -83.2555,-25.33635 -16.3765,-18.36337 -21.0595,-43.44332 -21.8045,-67.31084 0.8177,-25.25088 -2.022,-50.65988 -0.4691,-75.85498 3.0218,-41.27419 40.0749,-76.83455 81.2605,-79.20747 z" id="path4793" style="opacity:1;fill:#ffffff;fill-opacity:1;stroke:none;stroke-width:20;stroke-miterlimit:4;stroke-dasharray:none;stroke-opacity:0.63372091" transform="translate(0,1073.6222)"/></g></svg>
